<svg height="32" viewBox="8.4666665 0 8.4666665 8.4666669" width="32" xmlns="http://www.w3.org/2000/svg"><path d="m9.445178.72226a.40956564.40956564 0 0 0 -.308337.67967l2.504825 2.8314v2.53301a.40956564.40956564 0 0 0 .228766.36635l1.382543.68133a.40956564.40956564 0 0 0 .591809-.36636v-3.21433l2.483273-2.8314a.40956564.40956564 0 0 0 -.306679-.67967zm.908434.81892h4.762648l-1.989272 2.26777a.40956564.40956564 0 0 0 -.102779.27021v2.70873l-.563626-.27684v-2.43189a.40956564.40956564 0 0 0 -.10278-.27187z" fill="#682f1c" fill-rule="evenodd"/></svg>