<svg height="32" viewBox="0 0 8.4666665 8.4666669" width="32" xmlns="http://www.w3.org/2000/svg"><path d="m2.663646.75303c-1.122833 0-2.2479469.60991-2.2479459 2.40644 0 2.0211 3.1439329 4.7159 3.8176329 4.7159s3.817632-2.6948 3.817632-4.7159c0-1.79653-1.068402-2.39934-2.191235-2.39934s-1.626397.82737-1.626397.82737-.446853-.83447-1.569687-.83447zm-.09351.8257c.853356 0 1.438631.90704 1.663197.90704.224567 0 .80984-.90704 1.663196-.90704.853354 0 1.408377.44547 1.331735 1.80867-.07557 1.34403-2.770365 3.5897-2.994931 3.5897s-2.9193669-2.24567-3.0250079-3.5897c-.106989-1.36116.5084589-1.80867 1.3618109-1.80867z" fill="#682f1c" fill-rule="evenodd"/></svg>