<svg height="32" viewBox="0 0 8.4666665 8.4666669" width="32" xmlns="http://www.w3.org/2000/svg"><path d="m1.0894003.64027v7.41069h1.7965332c.8982666 0 1.1372919-1.58864.4491333-2.0211.6736999-.44912.4491333-1.79653-.2245667-1.79653h-.8982666v-1.57196l.4491333.6737.4491333-.6737v1.57196h1.1228333v-3.59306h-.8982666l-.6737 1.12283-.6736999-1.12283zm3.1439331 0 .8982666 2.0211v1.57196h.6736999l-.6736999 1.12283v-1.12283h-.8982666v3.81763h.8982666v-1.57196l.6736999 1.57196h1.1228333l-1.1228333-2.24566.8982666-1.57197h-.6736999v-1.57196l.8982666-2.0211h-.8982666l-.4491333 1.12283-.4491333-1.12283zm-2.0210999 4.26676h.4491333c.2245667 0 .2245667.6737 0 .6737h-.4491333zm0 1.57197h.4491333c.2245667 0 .2245667.6737 0 .6737h-.4491333z" fill="#682f1c" fill-rule="evenodd"/></svg>