<svg height="32" viewBox="8.4666665 0 8.4666665 8.4666669" width="32" xmlns="http://www.w3.org/2000/svg"><path d="m12.040129.4458a3.1439331 3.1439331 0 0 0 -3.143934 3.14394 3.1439331 3.1439331 0 0 0 3.143934 3.14393 3.1439331 3.1439331 0 0 0 1.736884-.52589c.04031-.0149.09421-.0258.155265-.0123.127601.0283 1.701355 1.61627 1.701355 1.61627.58028.5751 1.24036-.20125.680279-.75879l-1.594773-1.49565s-.08437-.0966-.0557-.23729a3.1439331 3.1439331 0 0 0 .520626-1.7303 3.1439331 3.1439331 0 0 0 -3.143932-3.14393zm0 .80178a2.3419092 2.3419092 0 0 1 2.34172 2.34216 2.3419092 2.3419092 0 0 1 -2.34172 2.34172 2.3419092 2.3419092 0 0 1 -2.342161-2.34172 2.3419092 2.3419092 0 0 1 2.342161-2.34216zm.130704.33992c-.638214.01-1.175157.18188-1.546527.55396-.371369.37207-.540719.90468-.558786 1.52635a.36712361.36712361 0 1 0 .732912.0219c.01467-.50456.14088-.82559.344746-1.02985.203866-.20425.522578-.3305 1.039498-.33817a.36723458.36723458 0 1 0 -.01184-.73423z" fill="#682f1c" fill-rule="evenodd"/></svg>