<svg height="32" viewBox="0 0 8.4666665 8.4666669" width="32" xmlns="http://www.w3.org/2000/svg"><path d="m3.86022907201.25321448633-1.14153221243 1.14101546802c-.4337373039.43235908949.21480168752 1.08296529669.64853891204.6506062072l.40617690508-.40617669341v3.52123161305c-.00827616562.62144637587.92811535391.62144637587.91984024661 0v-3.52123161305l.40617690508.40617669341c.43373722452.43235908949 1.08227613657-.21824711771.64853891204-.6506062072l-1.18132289492-1.1808063172c-.24198391743-.21258442391-.4419792589-.21297169184-.7064167735.03979084917zm-3.06751268729 2.16834283901c-.26923165816.00093561947-.48717490196.2191097651-.48782545938.48834224348v5.02759943118c-.00020243268.26983765975.21798949295.48895390715.48782545938.48989238411h6.88123277766c.27003794931-.00065404992.48854406762-.21985364105.48834219056-.48989238411v-5.02759943118c-.00065193325-.26943348231-.21890881409-.48769033668-.48834219056-.48834224348h-2.11718313118c-.66898934905-.01669705831-.66898934905.99544841709 0 .97875135878h1.62677401589v4.046780936h-5.90041438831v-4.046780936h1.62677391005c.66898934905.01669785206.66898934905-.99544839063 0-.97875135878z" fill="#682f1c" fill-rule="evenodd"/></svg>