<?xml version="1.0" encoding="UTF-8" standalone="no"?>
<svg xmlns:dc="http://purl.org/dc/elements/1.1/" 
   xmlns:cc="http://creativecommons.org/ns#" 
   xmlns:rdf="http://www.w3.org/1999/02/22-rdf-syntax-ns#" 
   xmlns:svg="http://www.w3.org/2000/svg" 
   xmlns="http://www.w3.org/2000/svg" xml:space="preserve" viewBox="-98.5 -99.2 291.8 295" y="0px" x="0px" version="1.1">
   <path transform="translate(-98.5,-99.2)" d="M 156.92383 14.837891 C 138.22046 15.003247 116.5875 19.405859 100.5 28.099609 C 64.5 47.399609 59.099609 79.300781 59.099609 79.300781 C 58.899609 80.100781 58.600391 82.5 59.400391 83.5 C 60.200391 84.5 61.400391 84.5 62.900391 84 C 75.600391 79.7 113.29961 67.200391 137.09961 60.900391 C 170.99961 51.900391 198.89922 46.400391 216.69922 43.400391 C 218.09922 43.100391 219.19922 42.7 219.69922 41.5 C 220.39922 39.8 219 38.199219 219 38.199219 C 219 38.199219 208.00078 19.600391 169.30078 15.400391 C 165.40078 14.987891 161.23999 14.799731 156.92383 14.837891 z M 157.5 18.173828 C 178.46694 18.400479 198.98203 27.525 198.80078 35.5 C 198.70078 40.8 192.2 41.199609 180.5 44.099609 C 185 42.699609 188.50039 39.199219 188.40039 35.199219 C 188.40039 28.999219 174.4 20.000391 151 18.400391 C 153.15625 18.222266 155.33101 18.150381 157.5 18.173828 z M 108.40039 27.699219 C 95.000391 35.899219 81.000391 52.499609 76.400391 70.099609 C 75.900391 74.199609 70.799609 73.600781 71.099609 69.800781 C 71.899609 60.200781 86.600391 37.299219 108.40039 27.699219 z " />
   <path d="M159.9,92.5c-20.3,45.6-59.2,77.3-110.3,78  C12.5,171-20.3,158.3-44,136.1l-14.3,6.1l0-22.2c-15.6-21-24.7-47.7-24.7-77.9c0-77.5,59.3-138.5,142.1-138.5  c13.5,0,25.7,2.1,34.9,4.2c-14.2-4.5-28.3-7-44-7c-88.8,0-148.6,72-148.6,146.3c0,80.9,63.5,148.7,146.8,148.7  c79.6,0,122.5-56.1,136.3-89.9L159.9,92.5" />
   <path d="M139.3,76.5c11.7-1.3,19.8-6,24.2-10.4c4-4,5-9.4,5-13.5  c0.2-6,0-24.8,0-24.8l-30.9,6.7c0,0,0,2.3,0,7.2c0.1,4.8,2.4,7.4,7.4,6.5c1.6-0.3,4-1,4-1l0,5.9c0-0.2,0.5,3.3-7.3,4.8  c-10.2,1.6-14.8-4.7-14.9-15.8c0.2-11.9,6.9-18.7,15.1-20.6c9.2-2.1,14.4,0.1,17.4,0.5c10.2,1.5,13.1-13.8,3.8-17.4  c-6.9-2.8-15.8-3.3-24.3-1.6c-11.4,2.3-33.7,11.8-33.8,42.7C104.9,70.3,123,78.3,139.3,76.5" />
   <path d="M38.8,102.8c0,0,9.5-3.3,10.3-3.5c7.6-2.6,10.4-7.2,10.4-15  c-0.1-8.5-0.1-25.1-0.1-25.1l22.1,25.4c3.6,3.7,8.1,4,12.2,2.8c4.2-1.2,7.8-5.1,7.9-10.6c0-18.3,0-63.1,0-63.1s-5.7,1.2-10.4,2.5  c-5.4,1.5-9.6,5-9.6,14.2c0,3.2,0,21.9,0,21.9S69,36.6,60.9,28.5c-4.3-4.3-11.5-1.7-11.5-1.7l-10.6,3.2L38.8,102.8" />
   <path d="M32.1,31.6c0,0-6.6,1.9-12,3.9C13.1,38,9,42.1,9,52.7  c0,9.8,0,60.5,0,60.5s6.1-2.1,11.9-4.3c8.1-3.1,11.2-7.3,11.2-15.8C32.1,85.8,32.1,31.6,32.1,31.6" />
   <path d="M-0.8,46c-6.1-2.8-11.3,0.3-13.5,3.7l-18.7,31.9l0-25.7  L-55.2,65l-0.1,72.6l15.6-6.5c0,0,3.1-0.9,4.9-3.8c1.7-2.7,1.6-7.1,1.6-7.1l0-23l17.4,18.5c3.8,4,10.8,6,17,1  c5.6-4.5,4.7-12.2,1.6-15.7L-13,85.1c0,0,13.9-22,16.2-25.6C6.2,54.5,4.7,48.5-0.8,46" />
   <path transform="translate(-98.5,-99.2)" d="M 242.85156 180.65039 C 242.29434 180.65625 241.675 180.75039 241 180.90039 C 199.8 190.60039 131.5 211.50039 92 228.40039 C 90.3 229.10039 89.6 229.39961 89 230.59961 C 88.2 232.49961 90.099609 234.40039 90.099609 234.40039 C 98.099609 244.50039 133.79961 257.30039 172.59961 247.90039 C 231.79961 233.60039 244.29922 191.70078 245.69922 185.80078 C 245.99922 184.60078 246.19961 182.7 245.09961 181.5 C 244.53711 180.875 243.78027 180.64063 242.85156 180.65039 z M 229.05469 192.30859 C 231.31501 192.5426 233.11836 194.89336 231.59961 198.09961 C 222.19961 217.89961 205.29922 231.19961 187.69922 238.09961 C 207.59922 226.79961 218.80078 210.29922 224.30078 196.19922 C 225.26328 193.22422 227.29666 192.12659 229.05469 192.30859 z " />
   <path d="M-44.6,36.2c-0.1-4-3.2-6.2-8.5-3.5l0,12.9c0,0,1.7-0.8,3-1.4  C-46.9,42.7-44.5,40.1-44.6,36.2 M-53.2,24.5c1-0.4,1.7-0.7,2.5-1.1c2.9-1.4,5-4.1,5-7.5c0-3.9-3.2-4.9-7.5-2.7  C-53.2,13.3-53.2,24.5-53.2,24.5z M-30.4,34.3c0.2,10.2-7.1,15.6-16.7,19.5l-19.5,8.3l0-52.9c0,0,12.3-5,16.3-6.5  c11.4-4.2,18.1,0.9,18.1,8.5c0,5.1-2.2,9.4-6.9,13.2C-34.5,25.2-30.5,29-30.4,34.3z" />
   <path d="M6.6-10.3c0-4.5-3.1-5.6-6.8-4.6c-3,0.9-6.5,2.2-6.5,2.2  l0,32.9c0,3.3-0.5,7.4-4.6,8.4c-3.1,0.8-4.6-1.3-4.6-4.6l0-26.9c0-4.5-3.1-5.8-6.8-4.6c-4.2,1.4-6.6,2.4-6.6,2.4s0,23.3,0,32.6  c-0.1,10.9,7.5,16.4,18.9,13c10.1-3,16.9-8.7,17-23.2L6.6-10.3" />
   <path d="M115.2,3.3c2.9-0.6,4.7-2.7,4.7-6.3c0-3.2,0-5.7,0-5.7  l-15.8,3.5l0-9.3c0,0,7.8-1.6,9.9-2.1c2.7-0.6,4.1-2.1,4.1-5.2c0-2.9,0-5.4,0-5.4l-14,3l0-7.4c0,0,7.3-1.5,11.2-2.3  c3.1-0.6,4.1-2.7,4.1-5.6c0-1.9,0-5.6,0-5.6c-7,1.2-20.3,3.9-28.6,5.8L90.7,8.9C90.7,8.9,106.5,5.2,115.2,3.3" />
   <path d="M23.6,1.3c0,0,7.8-4.1,7.8-10.5c-0.1-5.5-5.1-4.3-7.7-3.3  L23.6,1.3 M23.7,8.8c0,0,0,9.2,0,13c0,3.5-2.4,6-5.4,7.2c0,0.1,0-0.1,0,0c-2.5,0.9-7.9,2.7-7.9,2.7l0-49.7c0,0,11.1-3.9,17.6-5.4  C38-25.8,45.2-21.2,45.1-13C45-5.2,40.7-0.5,36.8,2.8l8.6,8.2c2.6,2.6,2.8,7.2-0.1,10c-1.8,1.7-6.5,3.4-10.1-0.4  C35.1,20.6,23.7,8.8,23.7,8.8z" />
   <path d="M135.8-25.4c0,0,7.7-2.9,7.6-9.1c-0.1-5.2-5.2-4.3-7.7-3.7  L135.8-25.4 M122.8,1.8l0-47.6c0,0,13.9-2.5,17.5-2.9c10-1.3,16.7,4.3,16.5,12.1c-0.1,6.9-4.4,11.1-8.1,13.6c0,0,6.8,7.6,8.6,9.7  c2.4,2.7,2.3,7.4-1.3,9.7c-3.5,2.2-7.1,1.1-9.1-1.2L135.8-18c0,0,0,8.1,0,11.6c0,3.5-2.1,6.1-5.7,6.8L122.8,1.8L122.8,1.8z" />
   <path d="M87.6-18.2l-19.7,4.5c0,0,0,2.1,0,5.5c0,2.6,1.8,4.2,4.4,3.7  c1.6-0.3,2.9-0.6,2.9-0.6l0,5.5c0,2.2-3.2,3.6-6.6,3.5C63.8,3.7,61.2,0,61.1-7c0.1-9.2,4.5-14.6,10.4-16.1c2.9-0.8,5.6-0.4,7.7-0.1  c5.1,0.8,8-1.6,8.1-5.8c0.1-4.5-3.9-7.3-12.4-7C56.3-35.4,46.8-22,46.8-6.1c0,16.3,10.7,23.5,23.7,21.2c7.3-1.5,11-3.9,13.5-6.1  c2.5-2.2,3.6-5.5,3.6-8.4L87.6-18.2" />
   <path d="M177.9,79.4h2.4c1.3,0,3,0.2,3,1.8c0,1.8-1.2,2-2.8,2h-2.5  L177.9,79.4 M175,91.5h2.8v-6.1h1.8l3.5,6.1h3l-3.8-6.3c2.1-0.2,3.8-1.2,3.8-3.8c0-3.1-2-4.3-5.6-4.3H175L175,91.5L175,91.5z   M167,84.3c0,7.8,6.2,12.9,13.2,12.9c7,0,13.2-5,13.2-12.9c0-7.8-6.2-12.8-13.2-12.8C173.2,71.5,167,76.5,167,84.3z M170.5,84.3  c0-5.8,4.3-10.1,9.7-10.1c5.3,0,9.7,4.2,9.7,10.1c0,5.9-4.4,10.1-9.7,10.1C174.8,94.5,170.5,90.2,170.5,84.3z" />
</svg>