<?xml version="1.0" encoding="UTF-8" standalone="no"?>
<!-- Generator: Adobe Illustrator 18.0.0, SVG Export Plug-In . SVG Version: 6.00 Build 0)  -->

<svg
   xmlns:dc="http://purl.org/dc/elements/1.1/"
   xmlns:cc="http://creativecommons.org/ns#"
   xmlns:rdf="http://www.w3.org/1999/02/22-rdf-syntax-ns#"
   xmlns:svg="http://www.w3.org/2000/svg"
   xmlns="http://www.w3.org/2000/svg"
   xmlns:sodipodi="http://sodipodi.sourceforge.net/DTD/sodipodi-0.dtd"
   xmlns:inkscape="http://www.inkscape.org/namespaces/inkscape"
   version="1.1"
   id="svg2200"
   sodipodi:docname="bk_logo.svg"
   inkscape:version="0.92.4 5da689c313, 2019-01-14"
   x="0px"
   y="0px"
   viewBox="-98.5 -99.2 315.00001 315"
   enable-background="new -98.5 -99.2 291.8 295"
   xml:space="preserve"
   width="315"
   height="315"
   inkscape:export-filename="/home/webfreak/Development/bk-webapp/public/logo/bk512.png"
   inkscape:export-xdpi="166.62"
   inkscape:export-ydpi="166.62"><metadata
   id="metadata897"><rdf:RDF><cc:Work
       rdf:about=""><dc:format>image/svg+xml</dc:format><dc:type
         rdf:resource="http://purl.org/dc/dcmitype/StillImage" /><dc:title></dc:title></cc:Work></rdf:RDF></metadata><defs
   id="defs895" />
<sodipodi:namedview
   id="namedview20"
   pagecolor="#000000"
   bordercolor="#666666"
   inkscape:zoom="1.82"
   borderopacity="1"
   inkscape:cy="129.22324"
   inkscape:cx="27.306939"
   showgrid="false"
   inkscape:pageopacity="0"
   inkscape:current-layer="svg2200"
   inkscape:window-width="1904"
   inkscape:window-y="8"
   inkscape:pageshadow="2"
   inkscape:window-maximized="0"
   inkscape:window-x="8"
   inkscape:window-height="1032"
   objecttolerance="10"
   gridtolerance="10"
   guidetolerance="10">
	</sodipodi:namedview>
<circle
   style="opacity:1;fill:#ffffff;fill-opacity:1;fill-rule:evenodd;stroke:none;stroke-width:4.27039099;stroke-linecap:round;stroke-linejoin:bevel;stroke-miterlimit:4;stroke-dasharray:none;stroke-opacity:1"
   id="path4671"
   cx="59"
   cy="58.299999"
   r="157.5" /><path
   id="path11"
   inkscape:connector-curvature="0"
   d="m 131.2,-47.699999 c 0.7,-1.7 -0.7,-3.3 -0.7,-3.3 0,0 -11,-18.6 -49.7,-22.8 -20.8,-2.2 -49,2 -68.8,12.7 -36,19.3 -41.4,51.2 -41.4,51.2 -0.2,0.8 -0.5,3.2 0.3,4.2 0.8,1 2,1 3.5,0.5 12.7,-4.3 50.4,-16.8 74.2,-23.1 33.9,-9 61.8,-14.5 79.6,-17.5 1.4,-0.3 2.5,-0.7 3,-1.9"
   style="fill:#faaf18" />
<path
   id="path13"
   inkscape:connector-curvature="0"
   d="m 169.9,102.5 c -20.3,45.6 -59.2,77.3 -110.3,78 C 22.5,181 -10.3,168.3 -34,146.1 l -14.3,6.1 V 130 C -63.9,109 -73,82.300001 -73,52.100001 -73,-25.399999 -13.7,-86.4 69.1,-86.4 c 13.5,0 25.7,2.1 34.9,4.2 -14.2,-4.5 -28.3,-7 -44,-7 -88.8,0 -148.6,72.000001 -148.6,146.300001 C -88.6,138 -25.1,205.8 58.2,205.8 c 79.6,0 122.5,-56.1 136.3,-89.9 l -24.6,-13.4"
   style="fill:#185494" />
<path
   id="path15"
   inkscape:connector-curvature="0"
   d="m 149.3,86.500001 c 11.7,-1.3 19.8,-6 24.2,-10.4 4,-4 5,-9.4 5,-13.5 0.2,-6 0,-24.8 0,-24.8 l -30.9,6.7 c 0,0 0,2.3 0,7.2 0.1,4.8 2.4,7.4 7.4,6.5 1.6,-0.3 4,-1 4,-1 v 5.9 c 0,-0.2 0.5,3.3 -7.3,4.8 -10.2,1.6 -14.8,-4.7 -14.9,-15.8 0.2,-11.9 6.9,-18.7 15.1,-20.6 9.2,-2.1 14.4,0.1 17.4,0.5 10.2,1.5 13.1,-13.8 3.8,-17.4 -6.9,-2.8 -15.8,-3.3 -24.3,-1.6 -11.4,2.3 -33.7,11.8 -33.8,42.7 -0.1,24.6 18,32.6 34.3,30.8"
   style="fill:#ed1d21" />
<path
   id="path17"
   inkscape:connector-curvature="0"
   d="m 48.8,112.8 c 0,0 9.5,-3.3 10.3,-3.5 7.6,-2.6 10.4,-7.2 10.4,-14.999999 -0.1,-8.5 -0.1,-25.1 -0.1,-25.1 l 22.1,25.4 c 3.6,3.7 8.1,4 12.2,2.8 4.2,-1.2 7.8,-5.1 7.9,-10.6 0,-18.3 0,-63.1 0,-63.1 0,0 -5.7,1.2 -10.4,2.5 -5.4,1.5 -9.6,5 -9.6,14.2 0,3.2 0,21.9 0,21.9 0,0 -12.6,-15.7 -20.7,-23.8 -4.3,-4.3 -11.5,-1.7 -11.5,-1.7 l -10.6,3.2 V 112.8"
   style="fill:#ee1c23" />
<path
   id="path19"
   inkscape:connector-curvature="0"
   d="m 42.1,41.600001 c 0,0 -6.6,1.9 -12,3.9 -7,2.5 -11.1,6.6 -11.1,17.2 0,9.8 0,60.499999 0,60.499999 0,0 6.1,-2.1 11.9,-4.3 8.1,-3.1 11.2,-7.3 11.2,-15.8 0,-7.299999 0,-61.499999 0,-61.499999"
   style="fill:#ed1c23" />
<path
   id="path21"
   inkscape:connector-curvature="0"
   d="m 9.2,56.000001 c -6.1,-2.8 -11.3,0.3 -13.5,3.7 l -18.7,31.9 v -25.7 l -22.2,9.1 -0.1,72.599999 15.6,-6.5 c 0,0 3.1,-0.9 4.9,-3.8 1.7,-2.7 1.6,-7.1 1.6,-7.1 v -23 l 17.4,18.5 c 3.8,4 10.8,6 17,1 5.6,-4.5 4.7,-12.2 1.6,-15.7 L -3,95.100001 c 0,0 13.9,-22 16.2,-25.6 3,-5 1.5,-11 -4,-13.5"
   style="fill:#ee1d23" />
<path
   id="path23"
   inkscape:connector-curvature="0"
   d="m 0.5,141.4 c -0.8,1.9 1.1,3.8 1.1,3.8 8,10.1 43.7,22.9 82.5,13.5 59.2,-14.3 71.7,-56.2 73.1,-62.099999 0.3,-1.2 0.5,-3.1 -0.6,-4.3 -0.9,-1 -2.3,-1 -4.1,-0.6 C 111.3,101.4 43,122.3 3.5,139.2 c -1.7,0.7 -2.4,1 -3,2.2"
   style="fill:#faaf18" />
<path
   id="path25"
   inkscape:connector-curvature="0"
   d="m -34.6,46.200001 c -0.1,-4 -3.2,-6.2 -8.5,-3.5 v 12.9 c 0,0 1.7,-0.8 3,-1.4 3.2,-1.5 5.6,-4.1 5.5,-8 m -8.6,-11.7 c 1,-0.4 1.7,-0.7 2.5,-1.1 2.9,-1.4 5,-4.1 5,-7.5 0,-3.9 -3.2,-4.9 -7.5,-2.7 0,0.1 0,11.3 0,11.3 z m 22.8,9.8 c 0.2,10.2 -7.1,15.6 -16.7,19.5 l -19.5,8.3 v -52.9 c 0,0 12.3,-5 16.3,-6.5 11.4,-4.2 18.1,0.9 18.1,8.5 0,5.1 -2.2,9.4 -6.9,13.2 4.6,0.8 8.6,4.6 8.7,9.9 z"
   style="fill:#ee1c23" />
<path
   id="path27"
   inkscape:connector-curvature="0"
   d="m 16.6,-0.299999 c 0,-4.5 -3.1,-5.6 -6.8,-4.6 -3,0.9 -6.5,2.2 -6.5,2.2 v 32.9 c 0,3.3 -0.5,7.4 -4.6,8.4 -3.1,0.8 -4.6,-1.3 -4.6,-4.6 v -26.9 c 0,-4.5 -3.1,-5.8 -6.8,-4.6 -4.2,1.4 -6.6,2.4 -6.6,2.4 0,0 0,23.3 0,32.6 -0.1,10.9 7.5,16.4 18.9,13 10.1,-3 16.9,-8.7 17,-23.2 v -27.6"
   style="fill:#ed1d1f" />
<path
   id="path29"
   inkscape:connector-curvature="0"
   d="m 125.2,13.300001 c 2.9,-0.6 4.7,-2.7 4.7,-6.3 0,-3.2 0,-5.7 0,-5.7 l -15.8,3.5 v -9.3 c 0,0 7.8,-1.6 9.9,-2.1 2.7,-0.6 4.1,-2.1 4.1,-5.2 0,-2.9 0,-5.4 0,-5.4 l -14,3 v -7.4 c 0,0 7.3,-1.5 11.2,-2.3 3.1,-0.6 4.1,-2.7 4.1,-5.6 0,-1.9 0,-5.6 0,-5.6 -7,1.2 -20.3,3.9 -28.6,5.8 l -0.1,48.2 c 0,0 15.8,-3.7 24.5,-5.6"
   style="fill:#ee1c23" />
<path
   id="path31"
   inkscape:connector-curvature="0"
   d="m 33.6,11.300001 c 0,0 7.8,-4.1 7.8,-10.5 -0.1,-5.5 -5.1,-4.3 -7.7,-3.3 l -0.1,13.8 m 0.1,7.5 c 0,0 0,9.2 0,13 0,3.5 -2.4,6 -5.4,7.2 0,0.1 0,-0.1 0,0 -2.5,0.9 -7.9,2.7 -7.9,2.7 v -49.7 c 0,0 11.1,-3.9 17.6,-5.4 10,-2.4 17.2,2.2 17.1,10.4 -0.1,7.8 -4.4,12.5 -8.3,15.8 l 8.6,8.2 c 2.6,2.6 2.8,7.2 -0.1,10 -1.8,1.7 -6.5,3.4 -10.1,-0.4 -0.1,0 -11.5,-11.8 -11.5,-11.8 z"
   style="fill:#ee1d23" />
<path
   id="path33"
   inkscape:connector-curvature="0"
   d="m 145.8,-15.399999 c 0,0 7.7,-2.9 7.6,-9.1 -0.1,-5.2 -5.2,-4.3 -7.7,-3.7 l 0.1,12.8 m -13,27.2 v -47.6 c 0,0 13.9,-2.5 17.5,-2.9 10,-1.3 16.7,4.3 16.5,12.1 -0.1,6.9 -4.4,11.1 -8.1,13.6 0,0 6.8,7.6 8.6,9.7 2.4,2.7 2.3,7.4 -1.3,9.7 -3.5,2.2 -7.1,1.1 -9.1,-1.2 l -11.1,-13.2 c 0,0 0,8.1 0,11.6 0,3.5 -2.1,6.1 -5.7,6.8 z"
   style="fill:#ee1d23" />
<path
   id="path35"
   inkscape:connector-curvature="0"
   d="m 97.6,-8.199999 -19.7,4.5 c 0,0 0,2.1 0,5.5 0,2.6 1.8,4.2 4.4,3.7 1.6,-0.3 2.9,-0.6 2.9,-0.6 v 5.5 c 0,2.2 -3.2,3.6 -6.6,3.5 -4.8,-0.2 -7.4,-3.9 -7.5,-10.9 0.1,-9.2 4.5,-14.6 10.4,-16.1 2.9,-0.8 5.6,-0.4 7.7,-0.1 5.1,0.8 8,-1.6 8.1,-5.8 0.1,-4.5 -3.9,-7.3 -12.4,-7 -18.6,0.6 -28.1,14 -28.1,29.9 0,16.3 10.7,23.5 23.7,21.2 7.3,-1.5 11,-3.9 13.5,-6.1 2.5,-2.2 3.6,-5.5 3.6,-8.4 v -18.8"
   style="fill:#ee1d23" />
<path
   id="path37"
   inkscape:connector-curvature="0"
   d="m 19.9,-61.499999 c -21.8,9.6 -36.5,32.5 -37.3,42.1 -0.3,3.8 4.8,4.4 5.3,0.3 4.6,-17.6 18.6,-34.2 32,-42.4"
   style="fill:#ffffff" />
<path
   id="path39"
   inkscape:connector-curvature="0"
   d="m 92,-45.099999 c 11.7,-2.9 18.2,-3.3 18.3,-8.6 0.2,-8.8 -24.8,-19 -47.8,-17.1 23.4,1.6 37.4,10.6 37.4,16.8 0.1,4 -3.4,7.5 -7.9,8.9"
   style="fill:#ffffff" />
<path
   id="path41"
   inkscape:connector-curvature="0"
   d="m 99.2,148.9 c 17.6,-6.9 34.5,-20.2 43.9,-40 2.7,-5.7 -5.1,-8.7 -7.3,-1.9 -5.5,14.1 -16.7,30.6 -36.6,41.9"
   style="fill:#ffffff" />
<path
   id="path43"
   inkscape:connector-curvature="0"
   d="m 184.9509,100.75487 h 0.89061 c 0.48242,0 1.11328,0.0742 1.11328,0.66796 0,0.66796 -0.44531,0.74218 -1.03906,0.74218 h -0.92772 l -0.0371,-1.41014 m -1.07616,4.49018 h 1.03905 v -2.26365 h 0.66797 l 1.29881,2.26365 h 1.11326 l -1.41013,-2.33787 c 0.77928,-0.0742 1.41013,-0.4453 1.41013,-1.41013 0,-1.15038 -0.74217,-1.595689 -2.07809,-1.595689 h -2.041 z m -2.96871,-2.67184 c 0,2.89449 2.30076,4.78705 4.89838,4.78705 2.59762,0 4.89838,-1.85545 4.89838,-4.78705 0,-2.894503 -2.30076,-4.749949 -4.89838,-4.749949 -2.59762,0 -4.89838,1.855446 -4.89838,4.749949 z m 1.29881,0 c 0,-2.15232 1.59569,-3.748008 3.59957,-3.748008 1.96677,0 3.59957,1.558578 3.59957,3.748008 0,2.18942 -1.6328,3.748 -3.59957,3.748 -2.00388,0.0371 -3.59957,-1.55858 -3.59957,-3.748 z"
   style="fill:#ee1d23;stroke-width:0.37108937" />
</svg>