<?xml version="1.0" encoding="UTF-8" standalone="no"?>
<!-- Generator: Adobe Illustrator 16.0.3, SVG Export Plug-In . SVG Version: 6.00 Build 0)  -->

<svg
   version="1.1"
   id="Burger_King_Logo_2020"
   x="0px"
   y="0px"
   width="569.221px"
   height="620px"
   viewBox="0 0 569.221 620"
   enable-background="new 0 0 569.221 620"
   xml:space="preserve"
   xmlns="http://www.w3.org/2000/svg"
   xmlns:svg="http://www.w3.org/2000/svg"><defs
   id="defs61" />
<path
   fill="#F5EBDC"
   d="M284.608,610c-117.216,0-182.052-9.66-224.262-33.558C29.321,558.898,10,532.462,10,507.544V176.782  c0-37.122,27.204-79.578,70.687-110.598C116.8,40.504,181.63,10,284.608,10c179.261,0,274.614,96.864,274.614,166.782V507.28  c0,25.171-19.326,51.612-50.604,69.155C466.667,600.34,401.83,610,284.608,610"
   id="path52" />
<path
   fill="#FF8732"
   d="M494.188,550.318C453.292,573.4,383.129,580,286.078,580c-97.05,0-167.214-6.6-208.104-29.682  c-24.553-13.824-36.973-32.67-36.973-46.184c0-7.69,4.093-12.096,13.206-12.096h463.733c9.12,0,13.213,4.404,13.213,12.096  c0.006,13.514-12.421,32.358-36.961,46.184H494.188 M517.942,192.196H54.208c-9.12,0-13.206-4.71-13.206-13.188  C41.002,128.74,116.662,40,286.078,40c167.851,0,245.082,88.74,245.082,139.008C531.16,187.486,527.068,192.196,517.942,192.196  L517.942,192.196"
   id="path54" />
<path
   fill="#d62300"
   d="m 139.78,399.532 c -1.416,-2.196 -1.566,-3.612 -1.566,-4.236 0,-1.728 0.942,-2.981 2.826,-4.71 4.405,-4.092 15.265,-14.298 21.24,-23.563 4.56,-7.067 6.444,-13.506 6.444,-18.84 0,-13.666 -12.42,-24.354 -25.957,-24.354 -8.652,0 -16.83,4.872 -22.332,13.824 -7.393,11.934 -16.206,25.758 -21.863,31.26 -1.417,1.417 -2.202,1.729 -3.3,1.729 -1.891,0 -2.676,-1.26 -2.676,-3.299 V 351.64 c 0,-15.391 -9.12,-27.805 -25.639,-27.805 -16.674,0 -25.645,12.408 -25.645,27.805 v 96.756 c 0,15.39 8.964,27.81 25.645,27.81 16.519,0 25.639,-12.408 25.639,-27.81 V 426.1 c 0,-1.89 0.785,-3.3 2.676,-3.3 2.52,0 3.149,2.516 3.78,3.77 3.617,8.64 14.147,27.012 23.909,37.854 6.605,7.225 14.784,11.784 23.437,11.784 14.628,0 26.904,-12.726 26.904,-26.394 0,-8.479 -3.624,-14.762 -10.542,-22.297 -8.813,-9.6 -19.2,-22.169 -22.98,-27.978 v -0.007 m 71.736,-75.708 c -17.616,0 -27.217,13.188 -27.217,29.682 V 446.5 c 0,16.5 9.601,29.688 27.217,29.688 17.615,0 27.21,-13.193 27.21,-29.688 v -92.994 c 0,-16.483 -9.588,-29.682 -27.21,-29.682 M 491.2,384.298 h -7.705 c -13.841,0 -24.539,6.438 -24.539,20.568 0,12.882 11.641,19.008 20.291,19.008 4.248,0 7.236,1.26 7.236,4.554 0,4.08 -5.034,6.75 -10.38,6.75 -17.778,0 -29.892,-12.096 -29.892,-34.56 0,-24.972 16.519,-34.08 29.256,-34.08 15.576,0 18.09,7.86 28.943,7.86 12.581,0 21.077,-10.213 21.077,-20.58 0,-7.692 -3.461,-13.664 -8.964,-17.748 -9.6,-7.074 -24.064,-12.26 -44.52,-12.26 -36.648,0 -72.36,23.088 -72.36,76.808 0,51.359 35.7,75.396 70.944,75.396 36.96,0 60.4,-22.775 60.4,-56.076 0.01,-21.036 -13.195,-35.64 -39.787,-35.64 M 362.368,323.824 c -16.199,0 -25.008,12.09 -25.008,27.33 v 33.924 c 0,2.82 -0.948,4.086 -2.676,4.086 -1.26,0 -2.202,-0.78 -3.3,-2.982 L 309.52,343.78 c -8.34,-16.182 -16.992,-19.949 -26.898,-19.949 -16.518,0 -25.644,12.402 -25.644,27.96 v 97.074 c 0,15.239 8.808,27.331 25.008,27.331 16.206,0 25.008,-12.097 25.008,-27.331 V 414.94 c 0,-2.819 0.948,-4.092 2.677,-4.092 1.26,0 2.208,0.786 3.3,2.988 l 21.863,42.408 c 8.34,16.182 17.305,19.95 26.904,19.95 16.519,0 25.645,-12.409 25.645,-27.96 V 351.16 c 0,-15.24 -8.81,-27.33 -25.015,-27.33 v -0.006"
   id="path56" />
<path
   fill="#d62300"
   d="m 347.34185,314.872 c 23.25384,0 37.92085,-15.708 37.92085,-38.64 0,-14.604 -8.30529,-24.66 -24.88759,-24.66 h -4.73457 c -8.74597,0 -15.55969,4.404 -15.55969,14.298 0,8.796 7.26005,13.038 12.74041,13.038 2.81362,0 4.59897,0.942 4.59897,3.144 0,2.82 -3.10741,4.71 -6.66775,4.71 -11.11326,0 -18.66617,-8.329 -18.66617,-23.88 0,-17.274 10.37407,-23.55 18.36861,-23.55 9.77423,0 11.4061,5.34 18.22076,5.34 7.85235,0 13.18675,-6.912 13.18675,-14.136 0,-5.34 -2.22604,-9.42 -5.63196,-12.252 -6.22048,-4.872 -14.95609,-8.478 -27.9903,-8.478 -22.96664,0 -45.32874,16.02 -45.32874,53.088 -0.0113,35.484 22.3574,51.978 44.43042,51.978 v 0 m 126.34853,-0.162 c 9.47857,0 14.66042,-7.542 14.66042,-16.962 v -16.65 c 0,-2.041 0.89173,-2.982 2.37388,-2.982 1.77405,0 2.36163,1.098 2.65449,2.982 1.33901,8.01 4.89182,18.846 8.88721,24.348 5.04061,7.074 9.77423,9.277 14.52011,9.277 7.6951,0 14.36851,-6.445 14.36851,-14.461 0,-5.34 -2.0735,-9.27 -4.74117,-12.876 -5.03966,-6.75 -8.1452,-11.146 -10.06615,-16.644 -0.44727,-1.26 -0.15254,-2.364 1.18647,-3.457 4.59333,-3.768 9.92679,-12.096 9.92679,-25.284 0,-19.95 -15.55875,-31.26 -34.37368,-31.26 h -16.73109 c -11.70178,0 -17.32715,7.218 -17.32715,16.962 v 70.056 c 0,9.42 5.18091,16.95 14.66701,16.95 l -0.006,10e-4 m 13.03327,-74.28 c 0,-2.04 1.18647,-3.624 3.70159,-3.624 h 2.07255 c 6.22614,0 8.14708,4.716 8.14708,8.802 0,3.93 -1.92094,9.108 -8.14708,9.108 h -2.07255 c -2.52078,0 -3.70159,-1.56 -3.70159,-3.612 v -10.68 0.006 m -49.18195,73.5 c 8.30529,0 14.81956,-5.184 14.81956,-14.609 0,-9.271 -6.51993,-14.454 -14.81391,-14.454 h -13.3327 c -2.51418,0 -3.7016,-1.566 -3.7016,-3.612 v -2.988 c 0,-2.04 1.18742,-3.612 3.70725,-3.612 h 10.22058 c 7.1141,0 12.74135,-4.554 12.74135,-12.57 0,-8.004 -5.62819,-12.564 -12.74135,-12.564 h -10.22435 c -2.51513,0 -3.70159,-1.572 -3.70159,-3.618 v -2.514 c 0,-2.04 1.18646,-3.612 3.70725,-3.612 h 13.32705 c 8.29492,0 14.8139,-5.184 14.8139,-14.604 0,-9.276 -6.51992,-14.46 -14.8139,-14.46 h -27.99407 c -11.69424,0 -17.32809,7.224 -17.32809,16.968 v 69.265 c 0,9.737 5.62819,16.967 17.32809,16.967 h 27.99407 v 0.019 h -0.007 m -254.47582,0.778 c 23.99491,0 36.73532,-15.24 36.73532,-34.392 V 227.38 c 0,-9.42 -5.18091,-16.968 -14.66607,-16.968 -9.48044,0 -14.66135,7.548 -14.66135,16.968 v 51.204 c 0,3.762 -2.0735,8.16 -7.40696,8.16 -5.33346,0 -7.11881,-4.398 -7.11881,-8.16 V 227.38 c 0,-9.42 -5.32781,-16.968 -14.81296,-16.968 -9.47951,0 -14.66136,7.548 -14.66136,16.968 v 52.932 c 0.007,19.165 12.6001,34.393 36.59407,34.393 l -0.002,0.005 m 103.98548,0 c 7.70264,0 14.37417,-6.438 14.37417,-14.454 0,-5.34 -2.0735,-9.27 -4.74023,-12.876 -4.29388,-5.97 -8.14708,-11.154 -10.06803,-16.644 -0.44634,-1.26 -0.1516,-2.364 1.18741,-3.462 4.59333,-3.762 9.92678,-12.09 9.92678,-25.284 0,-19.95 -15.55969,-31.26 -34.37369,-31.26 h -16.74615 c -11.69518,0 -17.32809,7.224 -17.32809,16.968 v 70.056 c 0,9.42 5.18751,16.969 14.66701,16.969 9.48045,0 14.66701,-7.549 14.66701,-16.969 V 281.11 c 0,-2.04 0.88609,-2.988 2.3673,-2.988 1.77969,0 2.36728,1.098 2.66107,2.988 1.3343,8.004 4.88618,18.84 8.88721,24.348 5.03778,7.056 9.77236,9.252 14.51823,9.252 v 0 m -24.29435,-60 h -2.07914 c -2.51984,0 -3.70065,-1.566 -3.70065,-3.612 v -10.674 c 0,-2.04 1.18647,-3.618 3.70065,-3.618 h 2.07349 c 6.22613,0 8.14709,4.716 8.14709,8.802 0,3.918 -1.92096,9.102 -8.14709,9.102 h 0.006"
   id="path3044"
   style="stroke-width:0.970382" /><path
   style="fill:none;fill-rule:evenodd;stroke:#d62300;stroke-width:24.7543;stroke-linecap:round;stroke-linejoin:round;stroke-miterlimit:4;stroke-dasharray:none;stroke-opacity:1"
   d="m 54.98376,223.13339 c 4.131953,25.1436 8.556462,50.32898 17.757956,76.1968 7.931872,-25.01143 14.916587,-49.45456 19.178593,-72.26407 5.952289,25.21497 12.494871,49.24936 19.178591,73.00146 8.69957,-23.81453 13.92464,-49.9454 18.23151,-76.6884"
   id="path8948" /></svg>
