<?xml version="1.0" encoding="UTF-8" standalone="no"?>
<!-- Created with Inkscape (http://www.inkscape.org/) -->

<svg
   xmlns:dc="http://purl.org/dc/elements/1.1/"
   xmlns:cc="http://creativecommons.org/ns#"
   xmlns:rdf="http://www.w3.org/1999/02/22-rdf-syntax-ns#"
   xmlns:svg="http://www.w3.org/2000/svg"
   xmlns="http://www.w3.org/2000/svg"
   xmlns:sodipodi="http://sodipodi.sourceforge.net/DTD/sodipodi-0.dtd"
   xmlns:inkscape="http://www.inkscape.org/namespaces/inkscape"
   width="128"
   height="128"
   viewBox="0 0 33.866666 33.866668"
   version="1.1"
   id="svg8"
   inkscape:version="0.92.4 5da689c313, 2019-01-14"
   sodipodi:docname="bordermask.svg">
  <defs
     id="defs2" />
  <sodipodi:namedview
     id="base"
     pagecolor="#ffffff"
     bordercolor="#666666"
     borderopacity="1.0"
     inkscape:pageopacity="0.0"
     inkscape:pageshadow="2"
     inkscape:zoom="4"
     inkscape:cx="41.755426"
     inkscape:cy="68.703559"
     inkscape:document-units="px"
     inkscape:current-layer="layer1"
     showgrid="true"
     units="px"
     showguides="true"
     inkscape:guide-bbox="true"
     gridtolerance="1"
     inkscape:window-width="1904"
     inkscape:window-height="1006"
     inkscape:window-x="8"
     inkscape:window-y="34"
     inkscape:window-maximized="0">
    <inkscape:grid
       type="xygrid"
       id="grid1368"
       spacingx="2.1166667"
       spacingy="2.1166667"
       empspacing="14"
       originx="2.1166667"
       originy="2.1166667"
       empcolor="#ff3f3f"
       empopacity="0.48627451"
       color="#ff3f3f"
       opacity="0.15686275"
       snapvisiblegridlinesonly="true"
       enabled="true" />
  </sodipodi:namedview>
  <metadata
     id="metadata5">
    <rdf:RDF>
      <cc:Work
         rdf:about="">
        <dc:format>image/svg+xml</dc:format>
        <dc:type
           rdf:resource="http://purl.org/dc/dcmitype/StillImage" />
        <dc:title></dc:title>
      </cc:Work>
    </rdf:RDF>
  </metadata>
  <g
     inkscape:label="Layer 1"
     inkscape:groupmode="layer"
     id="layer1"
     transform="translate(0,-263.13332)">
    <path
       style="opacity:1;fill:#000000;fill-opacity:1;fill-rule:evenodd;stroke:none;stroke-width:0.29895151;stroke-linecap:butt;stroke-linejoin:round;stroke-miterlimit:4;stroke-dasharray:none;stroke-opacity:1"
       d="M 0.15621667,263.33285 H 1.2728273 c 2.2767346,-0.1894 3.9190959,-0.0619 5.6927208,0 1.5175078,0.13823 2.8856994,0.1273 4.1374409,0 1.027253,-0.0615 2.41649,-0.21691 3.04077,0 0.785127,0.23972 2.298459,0.15473 5.034719,0 0.826582,-0.41504 4.145253,-0.064 6.530178,0 2.571049,0.28005 3.235396,0.0992 4.237139,0 0.900663,-0.10976 1.819232,-0.27318 2.592131,0 h 1.116611 v 1.11557 c 0.217285,4.88432 0.01864,3.12003 0,4.23315 -0.228419,2.49618 -0.0088,3.87311 0,5.77701 0.47247,3.83218 0.0096,3.69313 0,5.47819 -0.234474,3.50273 -0.0054,2.8387 0,4.18335 0.444549,0.42663 -0.173105,3.25066 0,3.48614 -0.20202,2.85802 -0.214094,3.92095 0,4.23315 0.299735,2.32965 0,2.56314 0,3.84471 v 1.11555 h -1.116611 c -0.948547,-0.0737 -1.604352,0.0355 -3.140466,0 -1.486295,0.0461 -2.164349,0.25195 -4.735626,0 -1.630733,-0.0228 -3.765483,-0.21367 -4.685778,0 -0.295322,0.24306 -1.436067,0.28737 -3.987896,0 -0.786501,-0.0692 -1.073578,-0.1092 -3.190315,0 -0.982644,0.12127 -2.112796,0.15081 -3.9878954,0 -0.7972587,-0.0744 -1.225307,-0.18129 -3.9878954,0 -1.2895232,0.42538 -2.3782918,0.0486 -3.5492269,0 H 0.15621667 v -1.11555 c -0.25160039,-1.19701 -0.14024604,-2.63574 0,-4.09373 0.00862,-1.27454 0.10925791,-1.44584 0,-4.13354 -0.19939574,-0.59762 -0.19939379,-1.66006 0,-3.18732 0.0454184,-1.33247 0.1996118,-2.55627 0,-4.13354 -0.13876934,-0.51574 -0.1269821,-1.85875 0,-3.83474 -0.0111847,-1.49746 -0.34582695,-2.13318 0,-4.58178 0.17325955,-1.91728 0.34579563,-3.83203 0,-3.93434 -0.18916374,-1.04923 -0.20941242,-2.15474 0,-3.33671 z"
       id="rect1370"
       inkscape:connector-curvature="0"
       sodipodi:nodetypes="ccccccccccccccccccccccccccccccccccccccc" />
  </g>
</svg>
