<?xml version="1.0" encoding="UTF-8" standalone="no"?>
<svg
   xmlns:dc="http://purl.org/dc/elements/1.1/"
   xmlns:cc="http://creativecommons.org/ns#"
   xmlns:rdf="http://www.w3.org/1999/02/22-rdf-syntax-ns#"
   xmlns:svg="http://www.w3.org/2000/svg"
   xmlns="http://www.w3.org/2000/svg"
   id="svg8"
   version="1.1"
   viewBox="0 0 8.4666665 8.4666669"
   height="32"
   width="32">
  <defs
     id="defs2">
    <clipPath
       id="clipPath830"
       clipPathUnits="userSpaceOnUse">
      <rect
         ry="0.40926281"
         y="284.29999"
         x="0"
         height="12.7"
         width="33.866665"
         id="rect832"
         style="opacity:1;fill:#ffffff;fill-opacity:1;fill-rule:evenodd;stroke:none;stroke-width:1.05833328;stroke-linecap:round;stroke-linejoin:bevel;stroke-miterlimit:4;stroke-dasharray:none;stroke-opacity:1" />
    </clipPath>
  </defs>
  <metadata
     id="metadata5">
    <rdf:RDF>
      <cc:Work
         rdf:about="">
        <dc:format>image/svg+xml</dc:format>
        <dc:type
           rdf:resource="http://purl.org/dc/dcmitype/StillImage" />
        <dc:title></dc:title>
      </cc:Work>
    </rdf:RDF>
  </metadata>
  <g
     transform="translate(0,-288.53332)"
     id="layer1">
    <path
       id="path836"
       d="m 1.0894003,289.17359 v 7.41069 h 1.7965332 c 0.8982666,0 1.1372919,-1.58864 0.4491333,-2.0211 0.6736999,-0.44912 0.4491333,-1.79653 -0.2245667,-1.79653 H 2.2122335 v -1.57196 l 0.4491333,0.6737 0.4491333,-0.6737 v 1.57196 h 1.1228333 v -3.59306 H 3.3350668 l -0.6737,1.12283 -0.6736999,-1.12283 z m 3.1439331,0 0.8982666,2.0211 v 1.57196 H 5.8052999 L 5.1316,293.88948 v -1.12283 H 4.2333334 v 3.81763 H 5.1316 v -1.57196 l 0.6736999,1.57196 h 1.1228333 l -1.1228333,-2.24566 0.8982666,-1.57197 H 6.0298666 v -1.57196 l 0.8982666,-2.0211 H 6.0298666 L 5.5807333,290.29642 5.1316,289.17359 Z m -2.0210999,4.26676 h 0.4491333 c 0.2245667,0 0.2245667,0.6737 0,0.6737 H 2.2122335 Z m 0,1.57197 h 0.4491333 c 0.2245667,0 0.2245667,0.6737 0,0.6737 H 2.2122335 Z"
       style="fill:#682f1c;fill-opacity:1;fill-rule:evenodd;stroke:none;stroke-width:0.33738044;stroke-linecap:butt;stroke-linejoin:miter;stroke-miterlimit:4;stroke-dasharray:none;stroke-opacity:1" />
    <path
       id="path849"
       d="m 11.130313,289.28635 c -1.122833,0 -2.2479469,0.60991 -2.2479459,2.40644 0,2.0211 3.1439329,4.7159 3.8176329,4.7159 0.6737,0 3.817632,-2.6948 3.817632,-4.7159 0,-1.79653 -1.068402,-2.39934 -2.191235,-2.39934 -1.122833,0 -1.626397,0.82737 -1.626397,0.82737 0,0 -0.446853,-0.83447 -1.569687,-0.83447 z m -0.09351,0.8257 c 0.853356,0 1.438631,0.90704 1.663197,0.90704 0.224567,0 0.80984,-0.90704 1.663196,-0.90704 0.853354,0 1.408377,0.44547 1.331735,1.80867 -0.07557,1.34403 -2.770365,3.5897 -2.994931,3.5897 -0.224566,0 -2.9193669,-2.24567 -3.0250079,-3.5897 -0.106989,-1.36116 0.5084589,-1.80867 1.3618109,-1.80867 z"
       style="fill:#682f1c;fill-opacity:1;fill-rule:evenodd;stroke:none;stroke-width:0.22456664px;stroke-linecap:butt;stroke-linejoin:miter;stroke-opacity:1" />
    <path
       id="path943"
       d="m 20.506796,288.97912 a 3.1439331,3.1439331 0 0 0 -3.143934,3.14394 3.1439331,3.1439331 0 0 0 3.143934,3.14393 3.1439331,3.1439331 0 0 0 1.736884,-0.52589 c 0.04031,-0.0149 0.09421,-0.0258 0.155265,-0.0123 0.127601,0.0283 1.701355,1.61627 1.701355,1.61627 0.58028,0.5751 1.24036,-0.20125 0.680279,-0.75879 l -1.594773,-1.49565 c 0,0 -0.08437,-0.0966 -0.0557,-0.23729 a 3.1439331,3.1439331 0 0 0 0.520626,-1.7303 3.1439331,3.1439331 0 0 0 -3.143932,-3.14393 z m 0,0.80178 a 2.3419092,2.3419092 0 0 1 2.34172,2.34216 2.3419092,2.3419092 0 0 1 -2.34172,2.34172 2.3419092,2.3419092 0 0 1 -2.342161,-2.34172 2.3419092,2.3419092 0 0 1 2.342161,-2.34216 z m 0.130704,0.33992 c -0.638214,0.01 -1.175157,0.18188 -1.546527,0.55396 -0.371369,0.37207 -0.540719,0.90468 -0.558786,1.52635 a 0.36712361,0.36712361 0 1 0 0.732912,0.0219 c 0.01467,-0.50456 0.14088,-0.82559 0.344746,-1.02985 0.203866,-0.20425 0.522578,-0.3305 1.039498,-0.33817 a 0.36723458,0.36723458 0 1 0 -0.01184,-0.73423 z"
       style="opacity:1;fill:#682f1c;fill-opacity:1;fill-rule:evenodd;stroke:none;stroke-width:0.22492029;stroke-linecap:round;stroke-linejoin:bevel;stroke-miterlimit:4;stroke-dasharray:none;stroke-opacity:1" />
    <path
       id="path956"
       d="m 26.378512,289.25558 a 0.40956564,0.40956564 0 0 0 -0.308337,0.67967 l 2.504825,2.8314 v 2.53301 a 0.40956564,0.40956564 0 0 0 0.228766,0.36635 l 1.382543,0.68133 a 0.40956564,0.40956564 0 0 0 0.591809,-0.36636 v -3.21433 l 2.483273,-2.8314 a 0.40956564,0.40956564 0 0 0 -0.306679,-0.67967 z m 0.908434,0.81892 h 4.762648 l -1.989272,2.26777 a 0.40956564,0.40956564 0 0 0 -0.102779,0.27021 v 2.70873 l -0.563626,-0.27684 v -2.43189 a 0.40956564,0.40956564 0 0 0 -0.10278,-0.27187 z"
       style="color:#000000;font-style:normal;font-variant:normal;font-weight:normal;font-stretch:normal;font-size:medium;line-height:normal;font-family:sans-serif;font-variant-ligatures:normal;font-variant-position:normal;font-variant-caps:normal;font-variant-numeric:normal;font-variant-alternates:normal;font-feature-settings:normal;text-indent:0;text-align:start;text-decoration:none;text-decoration-line:none;text-decoration-style:solid;text-decoration-color:#000000;letter-spacing:normal;word-spacing:normal;text-transform:none;writing-mode:lr-tb;direction:ltr;text-orientation:mixed;dominant-baseline:auto;baseline-shift:baseline;text-anchor:start;white-space:normal;shape-padding:0;clip-rule:nonzero;display:inline;overflow:visible;visibility:visible;opacity:1;isolation:auto;mix-blend-mode:normal;color-interpolation:sRGB;color-interpolation-filters:linearRGB;solid-color:#000000;solid-opacity:1;vector-effect:none;fill:#682f1c;fill-opacity:1;fill-rule:evenodd;stroke:none;stroke-width:0.81904936;stroke-linecap:round;stroke-linejoin:round;stroke-miterlimit:4;stroke-dasharray:none;stroke-dashoffset:0;stroke-opacity:1;color-rendering:auto;image-rendering:auto;shape-rendering:auto;text-rendering:auto;enable-background:accumulate" />
  </g>
</svg>
